<?xml version="1.0" standalone="no"?><!DOCTYPE svg PUBLIC "-//W3C//DTD SVG 1.1//EN" "http://www.w3.org/Graphics/SVG/1.1/DTD/svg11.dtd"><svg class="icon" width="200px" height="200.00px" viewBox="0 0 1024 1024" version="1.1" xmlns="http://www.w3.org/2000/svg"><path fill="#e6e6e6" d="M956.0064 563.2 870.4 563.2l0 307.2c0 22.784-9.9328 51.2-51.2 51.2l-204.8 0 0-307.2L409.6 614.4l0 307.2L204.8 921.6c-41.2672 0-51.2-28.416-51.2-51.2l0-307.2L67.9936 563.2c-30.6176 0-24.064-16.5888-3.072-38.2976L475.7504 113.664C485.7344 103.3216 498.8416 98.2016 512 97.6896c13.1584 0.512 26.2656 5.5808 36.2496 15.9744l410.7776 411.1872C980.0704 546.6112 986.624 563.2 956.0064 563.2z" /></svg>