<?xml version="1.0" standalone="no"?><!DOCTYPE svg PUBLIC "-//W3C//DTD SVG 1.1//EN" "http://www.w3.org/Graphics/SVG/1.1/DTD/svg11.dtd"><svg class="icon" width="200px" height="200.00px" viewBox="0 0 1024 1024" version="1.1" xmlns="http://www.w3.org/2000/svg"><path fill="#e6e6e6" d="M914.285714 877.714286a36.571429 36.571429 0 1 1 0 73.142857H36.571429a36.571429 36.571429 0 1 1 0-73.142857h877.714285zM219.428571 292.571429a73.142857 73.142857 0 0 1 73.142858 73.142857v365.714285a73.142857 73.142857 0 0 1-73.142858 73.142858H146.285714a73.142857 73.142857 0 0 1-73.142857-73.142858V365.714286a73.142857 73.142857 0 0 1 73.142857-73.142857h73.142857z m292.571429 73.142857a73.142857 73.142857 0 0 1 73.142857 73.142857v292.571428a73.142857 73.142857 0 0 1-73.142857 73.142858H438.857143a73.142857 73.142857 0 0 1-73.142857-73.142858V438.857143a73.142857 73.142857 0 0 1 73.142857-73.142857h73.142857z m292.571429-219.428572a73.142857 73.142857 0 0 1 73.142857 73.142857v512a73.142857 73.142857 0 0 1-73.142857 73.142858h-73.142858a73.142857 73.142857 0 0 1-73.142857-73.142858V219.428571a73.142857 73.142857 0 0 1 73.142857-73.142857h73.142858zM219.428571 365.714286H146.285714v365.714285h73.142857V365.714286z m292.571429 73.142857H438.857143v292.571428h73.142857V438.857143z m292.571429-219.428572h-73.142858v512h73.142858V219.428571z"  opacity=".65" /></svg>